[Header]
FileType HTR
DataType HTRS
FileVersion 1
NumSegments 48
NumFrames 4
DataFrameRate 30
EulerRotationOrder ZYX
CalibrationUnits mm
RotationUnits Degrees
GlobalAxisofGravity Y
BoneLengthAxis Y
ScaleFactor 1.0
[SegmentNames&Hierarchy]
Wolf	GLOBAL
Becken	Wolf
Bauch	Becken
Bauch_001	Bauch
Brust	Bauch_001
Hals	Brust
Kopf_002	Hals
Kopf	Kopf_002
Unterkiefer	Kopf
Hals_fett	Unterkiefer
Maulunten	Unterkiefer
Mauloben	Kopf
MundW_L	Kopf
MundW_R	Kopf
Augen_con	Kopf
IK_Aug_R	Augen_con
IK_Aug_L	Augen_con
Aug_R	Kopf
aug_L	Kopf
Ohr_L	Kopf
Ohr_R	Kopf
Braun_O_L	Kopf
Braun_O_R	Kopf
aug_lied_O_L	Kopf
aug_lied_O_R	Kopf
aug_lied_U_L	Kopf
aug_lied_U_R	Kopf
Bauch_003	Brust
Schalterplatte_L	Bauch_003
Oberarm_L	Schalterplatte_L
Unterarm_L	Oberarm_L
Vorderpfote_L	Unterarm_L
Schalterplatte_R	Bauch_003
Oberarm_R	Schalterplatte_R
Unterarm_R	Oberarm_R
Vorderpfote_R	Unterarm_R
Schwanz	Becken
Schwanz_001	Schwanz
Schwanz_002	Schwanz_001
Schwanz_003	Schwanz_002
Oberschenkel_L	Becken
Unterschenkel_L	Oberschenkel_L
Pfote1_L	Unterschenkel_L
Pfote2_L	Pfote1_L
Oberschenkel_R	Becken
Unterschenkel_R	Oberschenkel_R
Pfote1_R	Unterschenkel_R
Pfote2_R	Pfote1_R
[BasePosition]
Wolf	0	0	0	0	0	0	1
Becken	0	0	0	0	0	0	1
Bauch	0	0	0	0	0	0	1
Bauch_001	0	0	0	0	0	0	1
Brust	0	0	0	0	0	0	1
Hals	0	0	0	0	0	0	1
Kopf_002	0	0	0	0	0	0	1
Kopf	0	0	0	0	0	0	1
Unterkiefer	0	0	0	0	0	0	1
Hals_fett	0	0	0	0	0	0	1
Maulunten	0	0	0	0	0	0	1
Mauloben	0	0	0	0	0	0	1
MundW_L	0	0	0	0	0	0	1
MundW_R	0	0	0	0	0	0	1
Augen_con	0	0	0	0	0	0	1
IK_Aug_R	0	0	0	0	0	0	1
IK_Aug_L	0	0	0	0	0	0	1
Aug_R	0	0	0	0	0	0	1
aug_L	0	0	0	0	0	0	1
Ohr_L	0	0	0	0	0	0	1
Ohr_R	0	0	0	0	0	0	1
Braun_O_L	0	0	0	0	0	0	1
Braun_O_R	0	0	0	0	0	0	1
aug_lied_O_L	0	0	0	0	0	0	1
aug_lied_O_R	0	0	0	0	0	0	1
aug_lied_U_L	0	0	0	0	0	0	1
aug_lied_U_R	0	0	0	0	0	0	1
Bauch_003	0	0	0	0	0	0	1
Schalterplatte_L	0	0	0	0	0	0	1
Oberarm_L	0	0	0	0	0	0	1
Unterarm_L	0	0	0	0	0	0	1
Vorderpfote_L	0	0	0	0	0	0	1
Schalterplatte_R	0	0	0	0	0	0	1
Oberarm_R	0	0	0	0	0	0	1
Unterarm_R	0	0	0	0	0	0	1
Vorderpfote_R	0	0	0	0	0	0	1
Schwanz	0	0	0	0	0	0	1
Schwanz_001	0	0	0	0	0	0	1
Schwanz_002	0	0	0	0	0	0	1
Schwanz_003	0	0	0	0	0	0	1
Oberschenkel_L	0	0	0	0	0	0	1
Unterschenkel_L	0	0	0	0	0	0	1
Pfote1_L	0	0	0	0	0	0	1
Pfote2_L	0	0	0	0	0	0	1
Oberschenkel_R	0	0	0	0	0	0	1
Unterschenkel_R	0	0	0	0	0	0	1
Pfote1_R	0	0	0	0	0	0	1
Pfote2_R	0	0	0	0	0	0	1
[Wolf]
46	0	0	0	-90	-0	0	1.0
47	0	0	0	-90	-0	0	1.0
48	0	0	0	-90	-0	0	1.0
49	0	0	0	-90	-0	0	1.0
[Becken]
46	0	0.5621799231	0.4596601427	-1.781163216	169.3871765	89.35968781	1.0
47	0	0.5621799231	0.4457321465	-1.880056858	169.3883057	89.32415009	1.0
48	0	0.5621799231	0.4334601462	-1.949158788	169.3891144	89.29931641	1.0
49	0	0.5621799231	0.4246920943	-1.988530993	169.3895874	89.28516388	1.0
[Bauch]
46	0.9404072165	7.335228958e-08	-0.3559131622	-9.70548399e-07	12.60522652	-8.885302805e-08	1.0
47	0.9404072165	7.335228958e-08	-0.3559131622	-9.70548399e-07	12.60522652	-8.885302805e-08	1.0
48	0.9404072165	7.335228958e-08	-0.3559131622	-9.70548399e-07	12.60522652	-8.885302805e-08	1.0
49	0.9404072165	7.335228958e-08	-0.3559131622	-9.70548399e-07	12.60522652	-8.885302805e-08	1.0
[Bauch_001]
46	1.081897616	8.323696221e-08	1.180524034e-08	-2.503413032e-09	2.360082865	-2.670307531e-08	1.0
47	1.081897616	8.323696221e-08	1.180524034e-08	-2.503413032e-09	2.360082865	-2.670307531e-08	1.0
48	1.081897616	8.323696221e-08	1.180524034e-08	-2.503413032e-09	2.360082865	-2.670307531e-08	1.0
49	1.081897616	8.323696221e-08	1.180524034e-08	-2.503413032e-09	2.360082865	-2.670307531e-08	1.0
[Brust]
46	1.069831252	8.440110832e-08	3.139576066e-08	5.110827715e-06	12.35006809	-3.549572648e-05	1.0
47	1.069831252	8.440110832e-08	3.139576066e-08	5.110827715e-06	11.79070473	-3.549572648e-05	1.0
48	1.069831252	8.440110832e-08	3.139576066e-08	5.110827715e-06	11.29479122	-3.549572648e-05	1.0
49	1.069831252	8.440110832e-08	3.139576066e-08	5.110827715e-06	10.93954659	-3.549572648e-05	1.0
[Hals]
46	1.258022308	9.662471712e-08	0.6079561114	-4.810633527e-06	46.87745667	-2.341890877e-06	1.0
47	1.258022308	9.662471712e-08	0.6079561114	-4.810633527e-06	46.87745667	-2.341890877e-06	1.0
48	1.258022308	9.662471712e-08	0.6079561114	-4.810633527e-06	46.87745667	-2.341890877e-06	1.0
49	1.258022308	9.662471712e-08	0.6079561114	-4.810633527e-06	46.87745667	-2.341890877e-06	1.0
[Kopf_002]
46	1.752595186	3.012712114e-05	0.265181601	0.006653386634	-165.1497192	0.002557684667	1.0
47	1.752595186	3.012712114e-05	0.265181601	0.006653386634	-165.1497192	0.002557684667	1.0
48	1.752595186	3.012712114e-05	0.265181601	0.006653386634	-165.1497192	0.002557684667	1.0
49	1.752595186	3.012712114e-05	0.265181601	0.006653386634	-165.1497192	0.002557684667	1.0
[Kopf]
46	1.015782118	6.868503988e-08	-5.515175872e-08	0.06575364619	120.0541229	-0.02858852223	1.0
47	1.015782118	6.868503988e-08	-5.515175872e-08	0.06688749045	121.1729889	-0.02760647982	1.0
48	1.015782118	6.868503988e-08	-5.515175872e-08	0.06780230254	122.1645966	-0.02682561427	1.0
49	1.015782118	6.868503988e-08	-5.515175872e-08	0.06842187792	122.874733	-0.02630201168	1.0
[Unterkiefer]
46	0.6370447874	0.004552732222	0.4060618579	5.412721634	-68.3888092	-3.093543291	1.0
47	0.6370447874	0.004552732222	0.4060618579	5.412721634	-68.3888092	-3.093543291	1.0
48	0.6370447874	0.004552732222	0.4060618579	5.412721634	-68.3888092	-3.093543291	1.0
49	0.6370447874	0.004552732222	0.4060618579	5.412721634	-68.3888092	-3.093543291	1.0
[Hals_fett]
46	0.2998305857	0.007747137919	0.1206372604	-5.071650982	-59.35961151	5.585564613	1.0
47	0.2998305857	0.007747137919	0.1206372604	-5.071650982	-59.35961151	5.585564613	1.0
48	0.2998305857	0.007747137919	0.1206372604	-5.071650982	-59.35961151	5.585564613	1.0
49	0.2998305857	0.007747137919	0.1206372604	-5.071650982	-59.35961151	5.585564613	1.0
[Maulunten]
46	0.0831861794	-0.007747565862	-0.1206544712	-3.322209358	38.97271347	-0.8718761206	1.0
47	0.0831861794	-0.007747565862	-0.1206544712	-3.322209358	38.97271347	-0.8718761206	1.0
48	0.0831861794	-0.007747565862	-0.1206544712	-3.322209358	38.97271347	-0.8718761206	1.0
49	0.0831861794	-0.007747565862	-0.1206544712	-3.322209358	38.97271347	-0.8718761206	1.0
[Mauloben]
46	0.9101490974	0.0004056713078	0.4003697634	-0.1032672822	-28.7776947	0.03543138877	1.0
47	0.9101490974	0.0004056713078	0.4003697634	-0.1032672822	-28.7776947	0.03543138877	1.0
48	0.9101490974	0.0004056713078	0.4003697634	-0.1032672822	-28.7776947	0.03543138877	1.0
49	0.9101490974	0.0004056713078	0.4003697634	-0.1032672822	-28.7776947	0.03543138877	1.0
[MundW_L]
46	0.673060894	-0.3618555963	0.3751283586	-179.8370972	-17.94885063	24.713974	1.0
47	0.673060894	-0.3618555963	0.3751283586	-179.8370972	-17.94885063	24.713974	1.0
48	0.673060894	-0.3618555963	0.3751283586	-179.8370972	-17.94885063	24.713974	1.0
49	0.673060894	-0.3618555963	0.3751283586	-179.8370972	-17.94885063	24.713974	1.0
[MundW_R]
46	0.6732419133	0.3627035022	0.3739836514	179.665329	-18.02427101	-24.69083595	1.0
47	0.6732419133	0.3627035022	0.3739836514	179.665329	-18.02427101	-24.69083595	1.0
48	0.6732419133	0.3627035022	0.3739836514	179.665329	-18.02427101	-24.69083595	1.0
49	0.6732419133	0.3627035022	0.3739836514	179.665329	-18.02427101	-24.69083595	1.0
[Augen_con]
46	1.807373166	-0.0001604110003	0.183581531	0.0982221961	157.1545258	0.02385941334	1.0
47	1.807373166	-0.0001604110003	0.183581531	0.0982221961	157.1545258	0.02385941334	1.0
48	1.807373166	-0.0001604110003	0.183581531	0.0982221961	157.1545258	0.02385941334	1.0
49	1.807373166	-0.0001604110003	0.183581531	0.0982221961	157.1545258	0.02385941334	1.0
[IK_Aug_R]
46	0.3461295962	0.2943200469	-1.071020961e-07	-0.4194760025	-4.963055134	165.6946411	1.0
47	0.3461295962	0.2943200469	-1.071020961e-07	-0.4194760025	-4.963055134	165.6946411	1.0
48	0.3461295962	0.2943200469	-1.071020961e-07	-0.4194760025	-4.963055134	165.6946411	1.0
49	0.3461295962	0.2943200469	-1.071020961e-07	-0.4194760025	-4.963055134	165.6946411	1.0
[IK_Aug_L]
46	0.3461301029	-0.2943200171	-1.967418939e-07	0.4194771945	-4.963055134	-165.6946411	1.0
47	0.3461301029	-0.2943200171	-1.967418939e-07	0.4194771945	-4.963055134	-165.6946411	1.0
48	0.3461301029	-0.2943200171	-1.967418939e-07	0.4194771945	-4.963055134	-165.6946411	1.0
49	0.3461301029	-0.2943200171	-1.967418939e-07	0.4194771945	-4.963055134	-165.6946411	1.0
[Aug_R]
46	1.035154939	0.2207805216	-0.09605780989	176.004776	-17.29167175	12.85548782	1.0
47	1.035154939	0.2207805216	-0.09605780989	176.004776	-17.29167175	12.85548782	1.0
48	1.035154939	0.2207805216	-0.09605780989	176.004776	-17.29167175	12.85548782	1.0
49	1.035154939	0.2207805216	-0.09605780989	176.004776	-17.29167175	12.85548782	1.0
[aug_L]
46	1.03504467	-0.2215988934	-0.09535907209	-176.1891022	-17.33180046	-12.83102131	1.0
47	1.03504467	-0.2215988934	-0.09535907209	-176.1891022	-17.33180046	-12.83102131	1.0
48	1.03504467	-0.2215988934	-0.09535907209	-176.1891022	-17.33180046	-12.83102131	1.0
49	1.03504467	-0.2215988934	-0.09535907209	-176.1891022	-17.33180046	-12.83102131	1.0
[Ohr_L]
46	0.6407766938	-0.3659991026	-0.6893324852	-24.34923935	53.07765961	-15.02013397	1.0
47	0.6407766938	-0.3659991026	-0.6893324852	-24.34923935	53.07765961	-15.02013397	1.0
48	0.6407766938	-0.3659991026	-0.6893324852	-24.34923935	53.07765961	-15.02013397	1.0
49	0.6407766938	-0.3659991026	-0.6893324852	-24.34923935	53.07765961	-15.02013397	1.0
[Ohr_R]
46	0.640958488	0.36349985	-0.690484941	24.05785561	53.12415695	14.75856686	1.0
47	0.640958488	0.36349985	-0.690484941	24.05785561	53.12415695	14.75856686	1.0
48	0.640958488	0.36349985	-0.690484941	24.05785561	53.12415695	14.75856686	1.0
49	0.640958488	0.36349985	-0.690484941	24.05785561	53.12415695	14.75856686	1.0
[Braun_O_L]
46	0.9801894426	-0.3706049323	-0.3292509615	-143.317215	-34.69636154	52.39493942	1.0
47	0.9801894426	-0.3706049323	-0.3292509615	-143.317215	-34.69636154	52.39493942	1.0
48	0.9801894426	-0.3706049323	-0.3292509615	-143.317215	-34.69636154	52.39493942	1.0
49	0.9801894426	-0.3706049323	-0.3292509615	-143.317215	-34.69636154	52.39493942	1.0
[Braun_O_R]
46	0.9803640842	0.3690741956	-0.3304226995	143.1826782	-34.83971405	-52.34676361	1.0
47	0.9803640842	0.3690741956	-0.3304226995	143.1826782	-34.83971405	-52.34676361	1.0
48	0.9803640842	0.3690741956	-0.3304226995	143.1826782	-34.83971405	-52.34676361	1.0
49	0.9803640842	0.3690741956	-0.3304226995	143.1826782	-34.83971405	-52.34676361	1.0
[aug_lied_O_L]
46	1.038882375	-0.3271433413	-0.1608109176	-175.8613434	-20.15596771	60.31667709	1.0
47	1.038882375	-0.3271433413	-0.1608109176	-175.8613434	-20.15596771	60.31667709	1.0
48	1.038882375	-0.3271433413	-0.1608109176	-175.8613434	-20.15596771	60.31667709	1.0
49	1.038882375	-0.3271433413	-0.1608109176	-175.8613434	-20.15596771	60.31667709	1.0
[aug_lied_O_R]
46	1.039044976	0.326115787	-0.1618431658	175.7657928	-20.31324005	-60.31218338	1.0
47	1.039044976	0.326115787	-0.1618431658	175.7657928	-20.31324005	-60.31218338	1.0
48	1.039044976	0.326115787	-0.1618431658	175.7657928	-20.31324005	-60.31218338	1.0
49	1.039044976	0.326115787	-0.1618431658	175.7657928	-20.31324005	-60.31218338	1.0
[aug_lied_U_L]
46	1.02191329	-0.3312865198	-0.1338392347	-159.8099365	-28.7482872	60.17462158	1.0
47	1.02191329	-0.3312865198	-0.1338392347	-159.8099365	-28.7482872	60.17462158	1.0
48	1.02191329	-0.3312865198	-0.1338392347	-159.8099365	-28.7482872	60.17462158	1.0
49	1.02191329	-0.3312865198	-0.1338392347	-159.8099365	-28.7482872	60.17462158	1.0
[aug_lied_U_R]
46	1.022078872	0.3303525448	-0.1348842829	159.7071381	-28.90532303	-60.15359116	1.0
47	1.022078872	0.3303525448	-0.1348842829	159.7071381	-28.90532303	-60.15359116	1.0
48	1.022078872	0.3303525448	-0.1348842829	159.7071381	-28.90532303	-60.15359116	1.0
49	1.022078872	0.3303525448	-0.1348842829	159.7071381	-28.90532303	-60.15359116	1.0
[Bauch_003]
46	1.276869178	9.429641068e-08	-0.6079563498	-3.842957085e-06	-137.6799469	1.008550771e-05	1.0
47	1.276869178	9.429641068e-08	-0.6079563498	-3.842957085e-06	-137.6799469	1.008550771e-05	1.0
48	1.276869178	9.429641068e-08	-0.6079563498	-3.842957085e-06	-137.6799469	1.008550771e-05	1.0
49	1.276869178	9.429641068e-08	-0.6079563498	-3.842957085e-06	-137.6799469	1.008550771e-05	1.0
[Schalterplatte_L]
46	0.9565289021	-0.3802126646	-0.08460515738	-79.15098572	77.9641571	-107.1927414	1.0
47	0.9642413855	-0.3799079359	-0.09427434206	-66.03027344	78.63687134	-93.91742706	1.0
48	0.9719538689	-0.3796032071	-0.1017689034	-56.98846817	78.71623993	-84.82197571	1.0
49	0.9775164723	-0.3792984784	-0.1067513525	-52.34799194	78.6138382	-80.17495728	1.0
[Oberarm_L]
46	1.418636799	1.443549991e-07	9.778887033e-08	-58.05067062	-61.42230606	70.03544617	1.0
47	1.418636799	1.443549991e-07	9.778887033e-08	-51.47539139	-58.38354111	61.56243134	1.0
48	1.418636799	1.443549991e-07	9.778887033e-08	-47.09814453	-55.68092346	55.64064789	1.0
49	1.418636799	1.443549991e-07	9.778887033e-08	-44.81547546	-53.97084808	52.41866684	1.0
[Unterarm_L]
46	2.028227329	8.847563748e-08	-3.725290298e-07	4.473169327	60.6178894	4.912173271	1.0
47	2.028227329	8.847563748e-08	-3.725290298e-07	2.504433155	56.32534027	2.561425209	1.0
48	2.028227329	8.847563748e-08	-3.725290298e-07	1.203110456	52.50082779	1.129474163	1.0
49	2.028227329	8.847563748e-08	-3.725290298e-07	0.5121549964	50.0937767	0.4163304567	1.0
[Vorderpfote_L]
46	1.705947638	1.746229827e-07	-5.704351125e-08	-23.77602577	12.74854469	-5.228096008	1.0
47	1.705947638	1.746229827e-07	-5.704351125e-08	-16.42436409	30.57523918	-5.607414722	1.0
48	1.705947638	1.746229827e-07	-5.704351125e-08	-9.164510727	43.84027481	-3.747701883	1.0
49	1.705947638	1.746229827e-07	-5.704351125e-08	-3.92557621	51.58132172	-1.54434216	1.0
[Schalterplatte_R]
46	1.047406077	0.3995534182	0.1388408393	4.463909626	67.30688477	31.52608299	1.0
47	1.074983597	0.4017445147	0.1565029621	4.841963768	67.69828033	32.01634598	1.0
48	1.099582553	0.4039356411	0.1712801903	5.207191467	68.07023621	32.49812317	1.0
49	1.117278695	0.4061267376	0.1815238446	5.487586498	68.34975433	32.86883163	1.0
[Oberarm_R]
46	1.418636322	-1.210719205e-07	-7.450580597e-08	61.62519073	-58.22372055	-73.76039124	1.0
47	1.418636322	-1.210719205e-07	-7.450580597e-08	63.18635941	-58.5276947	-75.70626831	1.0
48	1.418636322	-1.210719205e-07	-7.450580597e-08	64.53994751	-58.78081512	-77.39849854	1.0
49	1.418636322	-1.210719205e-07	-7.450580597e-08	65.49658966	-58.95370483	-78.5938797	1.0
[Unterarm_R]
46	2.028231859	1.676380634e-07	-3.608874977e-07	-1.998849511	43.95103455	-2.061606884	1.0
47	2.028231859	1.676380634e-07	-3.608874977e-07	-2.194263458	44.93985748	-2.280411243	1.0
48	2.028231859	1.676380634e-07	-3.608874977e-07	-2.377729177	45.82511902	-2.48954916	1.0
49	2.028231859	1.676380634e-07	-3.608874977e-07	-2.512031794	46.46563339	-2.643256187	1.0
[Vorderpfote_R]
46	1.705937624	7.799826562e-08	1.461012289e-07	4.591527462	85.00579834	4.223173618	1.0
47	1.705937624	7.799826562e-08	1.461012289e-07	4.893472195	85.75079346	4.527484417	1.0
48	1.705937624	7.799826562e-08	1.461012289e-07	5.216001511	86.39172363	4.851303101	1.0
49	1.705937624	7.799826562e-08	1.461012289e-07	5.501336098	86.84518433	5.137365341	1.0
[Schwanz]
46	-0.144860819	-1.382431947e-08	0.09082130343	-2.220226997e-05	-114.5130768	2.181978562e-05	1.0
47	-0.1539467126	-1.382431947e-08	0.09575617313	-2.220226997e-05	-113.4447937	2.181978562e-05	1.0
48	-0.1630325913	-1.382431947e-08	0.1006910577	-2.220226997e-05	-112.4979782	2.181978562e-05	1.0
49	-0.1695786119	-1.382431947e-08	0.1042830124	-2.220226997e-05	-111.8199005	2.181978562e-05	1.0
[Schwanz_001]
46	0.9104328156	6.868503988e-08	7.788912626e-08	-2.408194405e-06	8.486422539	-5.75290926e-07	1.0
47	0.9104328156	6.868503988e-08	7.788912626e-08	-2.408194405e-06	7.029929638	-5.75290926e-07	1.0
48	0.9104328156	6.868503988e-08	7.788912626e-08	-2.408194405e-06	5.739482403	-5.75290926e-07	1.0
49	0.9104328156	6.868503988e-08	7.788912626e-08	-2.408194405e-06	4.815556049	-5.75290926e-07	1.0
[Schwanz_002]
46	0.7855660319	5.704351125e-08	-1.185253495e-07	8.174235973e-07	-8.720822334	-1.362372615e-07	1.0
47	0.7855660319	5.704351125e-08	-1.185253495e-07	8.174235973e-07	-9.774263382	-1.362372615e-07	1.0
48	0.7855660319	5.704351125e-08	-1.185253495e-07	8.174235973e-07	-10.7079401	-1.362372615e-07	1.0
49	0.7855660319	5.704351125e-08	-1.185253495e-07	8.174235973e-07	-11.37661934	-1.362372615e-07	1.0
[Schwanz_003]
46	0.8350355029	6.286426668e-08	-2.072192729e-07	-2.187832479e-06	-1.915789962	1.867661581e-07	1.0
47	0.8350355029	6.286426668e-08	-2.072192729e-07	-2.187832479e-06	-1.358540535	1.867661581e-07	1.0
48	0.8350355029	6.286426668e-08	-2.072192729e-07	-2.187832479e-06	-0.8645064831	1.867661581e-07	1.0
49	0.8350355029	6.286426668e-08	-2.072192729e-07	-2.187832479e-06	-0.5106142759	1.867661581e-07	1.0
[Oberschenkel_L]
46	0.5183432102	-0.5836999416	0.1123731434	-90.41845703	-95.18209076	94.56828308	1.0
47	0.4944306314	-0.5836999416	0.116786167	-84.40470886	-95.17127228	88.5300293	1.0
48	0.4774284065	-0.5836999416	0.1190652028	-77.4859848	-95.23062134	81.58272552	1.0
49	0.4676375389	-0.5836999416	0.1206329018	-71.75029755	-95.32263947	75.82281494	1.0
[Unterschenkel_L]
46	1.686439037	6.984918599e-08	-6.053597446e-08	-11.35381508	-37.34389496	16.5886097	1.0
47	1.686439037	6.984918599e-08	-6.053597446e-08	-11.54555893	-38.32220459	16.59584427	1.0
48	1.686439037	6.984918599e-08	-6.053597446e-08	-11.61032677	-38.81980515	16.5298214	1.0
49	1.686439037	6.984918599e-08	-6.053597446e-08	-11.60769939	-38.99002075	16.44764328	1.0
[Pfote1_L]
46	1.190900326	6.519258022e-08	1.396983862e-07	2.579607248	24.86007118	-5.250519753	1.0
47	1.190900326	6.519258022e-08	1.396983862e-07	2.620107889	23.65203667	-5.151368618	1.0
48	1.190900326	6.519258022e-08	1.396983862e-07	2.65751195	22.46596909	-5.055642128	1.0
49	1.190900326	6.519258022e-08	1.396983862e-07	2.684489727	21.57287407	-4.984362602	1.0
[Pfote2_L]
46	0.9876257777	7.450580597e-08	-5.587935092e-08	-15.54096889	83.19231415	-19.92624283	1.0
47	0.9876257777	7.450580597e-08	-5.587935092e-08	-11.84510231	80.92855835	-16.16066933	1.0
48	0.9876257777	7.450580597e-08	-5.587935092e-08	-9.470841408	78.83545685	-13.73898888	1.0
49	0.9876257777	7.450580597e-08	-5.587935092e-08	-8.114251137	77.28994751	-12.35540199	1.0
[Oberschenkel_R]
46	0.6789165735	0.5837000012	0.02324568108	-12.74881935	-51.28246307	6.818687916	1.0
47	0.7014030814	0.5837000012	0.04226802289	-13.01281929	-52.66555786	7.152999401	1.0
48	0.720133841	0.5837000012	0.05930759758	-13.28833866	-54.00310898	7.496067047	1.0
49	0.7330965996	0.5837000012	0.07159258425	-13.50909901	-55.01919556	7.767908573	1.0
[Unterschenkel_R]
46	1.68644917	1.164153218e-07	2.793967901e-08	26.80478859	-57.76955032	-37.30677032	1.0
47	1.68644917	1.164153218e-07	2.793967901e-08	23.87718964	-54.11719894	-34.35890579	1.0
48	1.68644917	1.164153218e-07	2.793967901e-08	21.55257797	-50.6354866	-32.01127625	1.0
49	1.68644917	1.164153218e-07	2.793967901e-08	20.01391602	-48.01438904	-30.45371819	1.0
[Pfote1_R]
46	1.190900087	1.856824383e-07	4.190951941e-08	-2.434789658	37.6841507	5.620798588	1.0
47	1.190900087	1.856824383e-07	4.190951941e-08	-2.415698528	37.32717514	5.652186394	1.0
48	1.190900087	1.856824383e-07	4.190951941e-08	-2.386679888	36.77062225	5.700461864	1.0
49	1.190900087	1.856824383e-07	4.190951941e-08	-2.359458208	36.23880386	5.746146679	1.0
[Pfote2_R]
46	0.9876258373	6.984919754e-09	6.635672634e-08	22.94193459	81.59095764	30.38363838	1.0
47	0.9876258373	6.984919754e-09	6.635672634e-08	18.72693062	81.25847626	26.17850304	1.0
48	0.9876258373	6.984919754e-09	6.635672634e-08	15.3384428	81.00804901	22.77588081	1.0
49	0.9876258373	6.984919754e-09	6.635672634e-08	13.08239841	80.85778046	20.49755859	1.0
[EndOfFile]
